<svg xmlns="http://www.w3.org/2000/svg" xmlns:xlink="http://www.w3.org/1999/xlink" version="1.1" x="0px" y="0px" viewBox="0 0 100 125" enable-background="new 0 0 100 100" xml:space="preserve"><path d="M75.989,41.541c-1.381,0-2.5,1.119-2.5,2.5v28.781c0,1.379-1.121,2.5-2.5,2.5H27.427c-1.379,0-2.5-1.121-2.5-2.5V29.26  c0-1.379,1.121-2.5,2.5-2.5h29.979c1.381,0,2.5-1.119,2.5-2.5s-1.119-2.5-2.5-2.5H27.427c-4.136,0-7.5,3.364-7.5,7.5v43.563  c0,4.136,3.364,7.5,7.5,7.5h43.563c4.136,0,7.5-3.364,7.5-7.5V44.041C78.489,42.66,77.37,41.541,75.989,41.541z M79.248,20.322  c-1.023-0.925-2.605-0.844-3.53,0.181L46.485,52.891L34.701,42.78c-1.048-0.898-2.627-0.778-3.525,0.27  c-0.899,1.048-0.778,2.626,0.27,3.525L45.08,58.272c0.471,0.404,1.05,0.603,1.627,0.603c0.684,0,1.364-0.279,1.856-0.825  l30.865-34.197C80.354,22.828,80.273,21.247,79.248,20.322z"/></svg>